<?xml version="1.0" encoding="UTF-8" standalone="no"?><!DOCTYPE svg PUBLIC "-//W3C//DTD SVG 1.1//EN" "http://www.w3.org/Graphics/SVG/1.1/DTD/svg11.dtd"><svg width="100%" height="100%" viewBox="0 0 1892 317" version="1.1" xmlns="http://www.w3.org/2000/svg" xmlns:xlink="http://www.w3.org/1999/xlink" xml:space="preserve" xmlns:serif="http://www.serif.com/" style="fill-rule:evenodd;clip-rule:evenodd;stroke-linejoin:round;stroke-miterlimit:2;"><g id="logo"><path d="M304.22,35.999l-119.379,275.794l-63.039,-0l-118.985,-275.794l68.948,0l83.92,196.996l85.102,-196.996l63.433,0Z" style="fill:#6e6e6e;fill-rule:nonzero;"/><path d="M326.677,99.826l61.463,-0l-0,211.967l-61.463,-0l0,-211.967Zm30.731,-29.55c-11.294,0 -20.487,-3.283 -27.579,-9.849c-7.092,-6.567 -10.638,-14.709 -10.638,-24.428c0,-9.718 3.546,-17.861 10.638,-24.427c7.092,-6.567 16.285,-9.85 27.579,-9.85c11.295,0 20.488,3.152 27.58,9.456c7.092,6.304 10.638,14.184 10.638,23.639c-0,10.244 -3.546,18.715 -10.638,25.413c-7.092,6.698 -16.285,10.046 -27.58,10.046Z" style="fill:#6e6e6e;fill-rule:nonzero;"/><path d="M661.175,19.452l0,292.341l-58.704,-0l-0,-24.428c-15.235,18.386 -37.298,27.58 -66.191,27.58c-19.962,-0 -38.02,-4.466 -54.174,-13.396c-16.153,-8.931 -28.826,-21.67 -38.02,-38.217c-9.193,-16.548 -13.789,-35.722 -13.789,-57.523c-0,-21.801 4.596,-40.975 13.789,-57.522c9.194,-16.548 21.867,-29.287 38.02,-38.218c16.154,-8.93 34.212,-13.395 54.174,-13.395c27.054,-0 48.198,8.536 63.433,25.609l-0,-102.831l61.462,-0Zm-114.257,245.062c15.497,-0 28.367,-5.319 38.611,-15.957c10.244,-10.638 15.366,-24.887 15.366,-42.748c-0,-17.861 -5.122,-32.11 -15.366,-42.748c-10.244,-10.638 -23.114,-15.956 -38.611,-15.956c-15.76,-0 -28.761,5.318 -39.005,15.956c-10.244,10.638 -15.366,24.887 -15.366,42.748c0,17.861 5.122,32.11 15.366,42.748c10.244,10.638 23.245,15.957 39.005,15.957Z" style="fill:#6e6e6e;fill-rule:nonzero;"/><path d="M925.543,206.597c-0,0.788 -0.394,6.304 -1.182,16.548l-160.354,-0c2.889,13.133 9.718,23.508 20.487,31.125c10.769,7.617 24.165,11.426 40.187,11.426c11.032,-0 20.816,-1.642 29.353,-4.925c8.536,-3.283 16.481,-8.471 23.836,-15.563l32.701,35.459c-19.962,22.852 -49.117,34.278 -87.466,34.278c-23.902,-0 -45.046,-4.663 -63.432,-13.987c-18.386,-9.325 -32.57,-22.261 -42.551,-38.808c-9.981,-16.548 -14.972,-35.328 -14.972,-56.341c0,-20.75 4.925,-39.465 14.775,-56.143c9.85,-16.679 23.377,-29.681 40.581,-39.006c17.204,-9.324 36.444,-13.986 57.719,-13.986c20.751,-0 39.531,4.465 56.341,13.395c16.81,8.931 30.009,21.736 39.596,38.415c9.587,16.679 14.381,36.05 14.381,58.113Zm-109.924,-63.432c-13.921,-0 -25.609,3.94 -35.065,11.819c-9.455,7.88 -15.234,18.649 -17.335,32.308l104.407,-0c-2.101,-13.396 -7.88,-24.099 -17.335,-32.111c-9.456,-8.011 -21.013,-12.016 -34.672,-12.016Zm15.76,-127.259l66.19,-0l-71.312,56.734l-48.067,0l53.189,-56.734Z" style="fill:#6e6e6e;fill-rule:nonzero;"/><path d="M1223.79,35.999l-0,275.794l-63.827,-0l0,-113.076l-125.289,0l0,113.076l-63.826,-0l-0,-275.794l63.826,0l0,108.742l125.289,-0l0,-108.742l63.827,0Z" style="fill:#6e6e6e;fill-rule:nonzero;"/><path d="M1385.53,96.674c64.256,-0 116.424,48.902 116.424,109.135c-0,60.234 -52.168,109.136 -116.424,109.136c-64.257,-0 -116.424,-48.902 -116.424,-109.136c-0,-60.233 52.167,-109.135 116.424,-109.135Zm51.882,109.078l-79.128,54.26l-0.078,-108.406l79.206,54.146Z" style="fill:#6e6e6e;"/><path d="M1614.24,314.945c-17.598,-0 -34.802,-2.167 -51.613,-6.501c-16.81,-4.334 -30.205,-9.784 -40.187,-16.351l20.488,-44.127c9.456,6.041 20.881,10.966 34.277,14.775c13.396,3.808 26.529,5.713 39.399,5.713c26.004,-0 39.005,-6.435 39.005,-19.306c0,-6.041 -3.546,-10.375 -10.637,-13.002c-7.092,-2.626 -17.993,-4.859 -32.702,-6.697c-17.335,-2.627 -31.65,-5.648 -42.945,-9.062c-11.294,-3.415 -21.078,-9.456 -29.352,-18.124c-8.274,-8.668 -12.411,-21.013 -12.411,-37.035c0,-13.396 3.875,-25.281 11.623,-35.656c7.749,-10.375 19.043,-18.452 33.883,-24.23c14.841,-5.779 32.373,-8.668 52.598,-8.668c14.972,-0 29.878,1.641 44.718,4.925c14.84,3.283 27.12,7.814 36.838,13.592l-20.487,43.733c-18.649,-10.506 -39.006,-15.759 -61.069,-15.759c-13.133,-0 -22.983,1.838 -29.549,5.516c-6.567,3.677 -9.85,8.405 -9.85,14.183c-0,6.567 3.546,11.163 10.638,13.79c7.091,2.626 18.386,5.122 33.883,7.486c17.335,2.889 31.519,5.975 42.551,9.258c11.032,3.284 20.619,9.259 28.761,17.927c8.143,8.668 12.214,20.75 12.214,36.247c-0,13.133 -3.94,24.822 -11.82,35.065c-7.88,10.244 -19.371,18.19 -34.474,23.837c-15.103,5.647 -33.03,8.471 -53.78,8.471Z" style="fill:#6e6e6e;fill-rule:nonzero;"/><path d="M1888.85,301.549c-6.042,4.465 -13.462,7.814 -22.261,10.047c-8.799,2.232 -18.058,3.349 -27.776,3.349c-25.216,-0 -44.718,-6.436 -58.508,-19.306c-13.789,-12.87 -20.684,-31.782 -20.684,-56.735l-0,-87.072l-32.701,0l-0,-47.278l32.701,-0l-0,-51.613l61.462,-0l0,51.613l52.795,-0l-0,47.278l-52.795,0l0,86.284c0,8.931 2.299,15.826 6.895,20.685c4.597,4.859 11.098,7.289 19.503,7.289c9.718,-0 17.992,-2.627 24.821,-7.88l16.548,43.339Z" style="fill:#6e6e6e;fill-rule:nonzero;"/></g></svg>